<?xml version="1.0" ?><!DOCTYPE svg  PUBLIC '-//W3C//DTD SVG 1.1//EN'  'http://www.w3.org/Graphics/SVG/1.1/DTD/svg11.dtd'><svg height="512px" style="enable-background:new 0 0 512 512;" version="1.1" viewBox="0 0 512 512" width="512px" xml:space="preserve" xmlns="http://www.w3.org/2000/svg" xmlns:xlink="http://www.w3.org/1999/xlink"><g id="_x33_02_x2C__mountain_x2C__landscape_x2C__hill_x2C__nature_x2C__sun"><g><path d="M450.791,352.064c-5.728-0.807-11.732-1.67-13.814-2.162    c-0.314-0.078-0.629-0.216-0.904-0.432l-2.093-1.572c-0.255-0.157-0.481-0.374-0.669-0.629c-4.952-6.918-4.519-11.654-3.88-18.689    l0.265-3.086c1.278-16.92-2.879-24.722-6.829-31.993l-0.099-0.157c-3.42-6.309-6.682-12.322-6.671-22.914    c-0.925,1.514-1.81,3.065-2.645,4.657c-2.141,4.067-3.95,8.333-5.354,12.42c-1.397,4.088-3.421,7.92-5.749,11.556l-0.06,0.098    c-2.29,3.597-4.884,6.996-7.447,10.338c-0.758,0.963-1.405,1.689-1.986,2.338c-1.149,1.258-1.876,2.064-1.739,3.734    c0.758,8.666,0.787,12.971,0.816,21.225l0.01,1.553c0.236,6.15,0.512,12.4,0.825,18.709l1.002,18.708    c0.54,9.649,1.849,16.606,3.283,24.271c0.618,3.282,1.257,6.722,1.905,10.69c2.575,0.826,4.786,1.376,6.997,1.71    c2.634,0.413,5.355,0.57,8.725,0.609c16.784,0.236,33.812,0.177,50.771,0.099l20.547-0.078    c-7.537-12.638-7.212-21.304-6.937-28.987c0.225-5.955,0.421-11.301-3.813-17.51c-1.032-1.533-4.177-4.953-7.271-7.979    c-2.407-2.319-4.706-4.323-5.719-4.775C461.808,353.637,456.431,352.87,450.791,352.064 M386.264,315.118    c-0.48-1.926-1.375-3.616-3.055-6.78l-0.099-0.176c-1.159-2.182-2.693-5.051-4.942-9.65c-5.209-10.65-5.11-19.652-5.022-28.239    c0.099-8.392,0.188-16.37-5.217-24.86c-7.654-12.027-13.06-19.888-19.603-25.135c-6.428-5.129-14.219-7.92-26.748-9.904    c-0.941-0.079-1.797-0.728-2.092-1.691l-5.62-17.844c-3.438-10.887-3.646-18.826-3.832-26.195    c-0.257-10.16-0.491-19.24-10.201-34.293c-9.718-15.055-10.965-18.689-15.014-31.798l-1.218,3.538    c-3.125,9.178-7.301,21.4-9.04,25.92c0,0.629-0.237,1.238-0.707,1.711l-0.06,0.039c-1.16,0.668-13.668,4.539-19.76,6.426    l-1.562,0.472c-1.141,8.765-2.604,17.372-4.048,25.96c-1.397,8.294-2.801,16.607-3.912,24.861    c-0.079,0.942-0.698,1.807-1.651,2.102c-22.04,7.174-22.905,11.831-25.783,27.337c-1.042,5.679-2.35,12.715-4.875,21.656    c-0.609,2.182-1.021,3.911-1.308,5.149c-0.54,2.338-0.814,3.479-1.916,4.264c-1.69,1.18-2.624,0.551-4.49-0.688    c-0.737-0.472-1.778-1.16-3.213-1.887l-9.03-4.559c-11.692-5.955-17.637-8.981-20.772-8.176    c-2.897,0.766-4.617,5.936-8.097,16.409l-2.091,6.27c-3.145,9.256-7.706,16.017-12.106,22.54    c-5.876,8.727-11.497,17.059-12.617,30.402c-0.433,5.208-0.589,8.746-0.698,11.596c-0.333,8.135-0.472,11.339-5.394,25.803    c-0.374,1.258-1.709,1.984-2.967,1.631c-4.755-1.355-9.177-2.613-13.187-3.694c-4.206-1.159-8.598-2.319-13.217-3.519    c-0.863-0.235-1.562-0.923-1.758-1.866c-0.963-4.775-2.023-8.923-3.202-12.911c-1.179-3.99-2.478-7.822-3.922-11.969l-0.323-0.943    c-2.615-7.507-0.709-12.027-2.085-11.477l-0.077,0.039c-0.434,0.217,0.068,1.396-0.502,4.01    c-0.748,3.399-1.798,8.175-3.645,14.012c-2.969,9.314-9.414,15.525-15.693,21.578c-5.699,5.482-11.251,10.848-13.274,18.041    c-1.269,4.5-0.807,6.229-0.551,7.211c0.295,1.141,0.492,1.867-0.158,3.066c-0.688,1.277-2.092,2.063-5.924,4.186l-2.211,1.238    c-1.591,0.885-2.672,1.355-3.379,1.65l-0.147,0.04l-0.049,0.354l-0.501,2.279c-2.31,9.474-9.994,21.933-16.135,31.876    l-1.562,2.536h12.341c2.85,0,6.131,0.059,9.04,0.098c11.771,0.216,16.499,0.295,31.64-5.444    c20.585-7.781,30.422-3.753,40.189,0.256c6.071,2.496,12.134,4.972,21.106,4.01c3.202-0.354,6.563-0.768,9.727-1.16    c11.36-1.435,20.685-2.613,34.156-0.963c1.622,0.373,4.068,0.59,5.798,0.825c9.374,1.336,16.114,2.319,27.071,2.379l36.632,0.216    c22.433,0.156,45.229,0.334,67.23-0.138c8.871-0.197,17.588-1.788,26.225-3.36c15.348-2.811,30.471-5.563,46.645-0.768    c-0.492-2.81-0.993-5.502-1.484-8.115c-1.464-7.803-2.791-14.896-3.361-24.88l-0.99-18.729c-0.306-6.189-0.59-12.42-0.836-18.768    v-1.65c-0.04-8.018-0.06-12.184-0.816-20.891C386.283,315.688,386.274,315.394,386.264,315.118z M165.835,149.156    c5.001,0,9.541,2.024,12.813,5.307l0.128,0.137c3.203,3.282,5.178,7.743,5.178,12.676c0,4.992-2.034,9.531-5.315,12.813    c-3.264,3.283-7.803,5.307-12.805,5.307c-4.99,0-9.521-2.023-12.802-5.307c-3.292-3.281-5.326-7.82-5.326-12.813    s2.034-9.512,5.306-12.793C156.314,151.181,160.845,149.156,165.835,149.156z M406.811,207.582    c-0.235,0.511-0.639,0.963-1.19,1.238c-1.236,0.629-2.749,0.117-3.369-1.121c-2.683-5.385-14.552,0.551-14.581,0.57    c-1.239,0.609-2.752,0.118-3.371-1.12c-0.619-1.237-0.117-2.751,1.121-3.36c0.039-0.02,12.686-6.348,19.092-1.18    c6.406-5.148,19.032,1.16,19.072,1.18c1.237,0.609,1.748,2.123,1.13,3.36c-0.619,1.238-2.132,1.729-3.371,1.12    C421.313,208.25,409.601,202.394,406.811,207.582z M431.984,170.145c-2.791-5.207-14.513,0.668-14.542,0.668    c-1.239,0.629-2.741,0.118-3.36-1.12c-0.619-1.237-0.117-2.731,1.119-3.36c0.041-0.02,12.666-6.328,19.072-1.159    c6.418-5.169,19.054,1.14,19.092,1.159c1.239,0.629,1.741,2.123,1.121,3.36c-0.619,1.238-2.123,1.749-3.359,1.12    c-0.03,0-11.91-5.935-14.593-0.57c-0.62,1.238-2.132,1.75-3.371,1.141C432.623,171.107,432.21,170.655,431.984,170.145z     M351.097,180.718c-2.722-5.286-14.532,0.608-14.573,0.628c-1.236,0.609-2.74,0.119-3.359-1.119    c-0.618-1.238-0.118-2.752,1.121-3.361c0.038-0.039,12.674-6.348,19.08-1.179c6.407-5.169,19.045,1.14,19.084,1.179    c1.236,0.609,1.738,2.123,1.119,3.361c-0.617,1.238-2.121,1.729-3.36,1.119c-0.03-0.02-11.851-5.914-14.571-0.628l-0.02,0.039    l-0.011,0.02l-0.019,0.04v0.02l-0.03,0.039l0,0l-0.03,0.059l0,0l-0.038,0.059l0,0l-0.03,0.039v0.021l-0.038,0.039l0,0l-0.03,0.039    l-0.01,0.021l-0.03,0.039l0,0l-0.038,0.039v0.02l-0.039,0.039h-0.011l-0.03,0.039l-0.008,0.02l-0.03,0.021l-0.011,0.02    l-0.029,0.039h-0.02l-0.029,0.04h-0.01l-0.04,0.039l-0.009,0.02l-0.029,0.02l-0.012,0.02l-0.038,0.02l-0.011,0.02l-0.038,0.02    h-0.011l-0.039,0.039h-0.01l-0.039,0.039h-0.01l-0.05,0.04l0,0l-0.049,0.04l0,0l-0.05,0.02h-0.008l-0.05,0.039l0,0l-0.049,0.02    h-0.011l-0.049,0.039h-0.009l-0.04,0.02h-0.02l-0.039,0.02l-0.021,0.02h-0.038l-0.019,0.021l-0.03,0.019h-0.03l-0.029,0.021    l-0.088,0.02l-0.02,0.02h-0.04l-0.02,0.02h-0.038h-0.02l-0.041,0.02h-0.02l-0.038,0.021h-0.019h-0.05h-0.011l-0.049,0.02h-0.011    h-0.049h-0.02l-0.038,0.02h-0.02h-0.049h-0.012h-0.049h-0.01h-0.05h-0.009h-0.049h-0.011h-0.049h-0.02h-0.049h-0.011h-0.049h-0.01    h-0.049h-0.01h-0.049h-0.01l-0.049-0.02h-0.021h-0.038h-0.02l-0.049-0.02h-0.011h-0.049h-0.009l-0.04-0.021h-0.02l-0.039-0.02    h-0.021h-0.038l-0.03-0.02h-0.029l-0.028-0.02l-0.089-0.02l-0.03-0.021h-0.028l-0.029-0.019l-0.02-0.021h-0.041l-0.019-0.02    l-0.038-0.02h-0.021l-0.039-0.02h-0.01l-0.05-0.039h-0.009l-0.049-0.02l0,0l-0.049-0.039l0,0l-0.061-0.02l0,0l-0.049-0.04l0,0    l-0.049-0.04l0,0l-0.049-0.039h-0.01l-0.04-0.039h-0.009l-0.04-0.02l-0.009-0.02l-0.029-0.02l-0.02-0.02l-0.03-0.02l-0.011-0.02    l-0.039-0.039h-0.01l-0.029-0.04h-0.01l-0.04-0.039l-0.009-0.02l-0.029-0.021l-0.011-0.02l-0.028-0.039h-0.011l-0.03-0.039    l-0.008-0.02l-0.03-0.039h-0.011l-0.029-0.039l-0.009-0.021l-0.03-0.039l0,0l-0.038-0.039v-0.021l-0.03-0.039l0,0l-0.029-0.059    l0,0l-0.039-0.059l0,0l-0.021-0.039l-0.008-0.02l-0.02-0.04l-0.011-0.02L351.097,180.718z M163.419,138.229    c0-1.316,1.081-2.417,2.416-2.417c1.327,0,2.408,1.101,2.408,2.417v6.701c0,1.317-1.081,2.417-2.408,2.417    c-1.335,0-2.416-1.1-2.416-2.417V138.229z M189.783,150.67c1.158-0.648,2.632-0.256,3.281,0.884    c0.669,1.159,0.265,2.634-0.884,3.282l-5.787,3.341c-1.149,0.668-2.624,0.274-3.283-0.885c-0.658-1.14-0.265-2.613,0.884-3.282    L189.783,150.67z M192.18,179.715c1.149,0.668,1.553,2.143,0.884,3.282c-0.649,1.159-2.123,1.553-3.281,0.884l-5.789-3.34    c-1.149-0.648-1.542-2.123-0.884-3.282c0.66-1.14,2.134-1.553,3.283-0.885L192.18,179.715z M168.243,196.321    c0,1.337-1.081,2.417-2.408,2.417c-1.335,0-2.416-1.08-2.416-2.417v-6.682c0-1.337,1.081-2.417,2.416-2.417    c1.327,0,2.408,1.08,2.408,2.417V196.321z M141.88,183.881c-1.149,0.669-2.624,0.275-3.292-0.884    c-0.647-1.14-0.254-2.614,0.895-3.282l5.787-3.341c1.149-0.668,2.624-0.255,3.281,0.885c0.668,1.159,0.267,2.634-0.884,3.282    L141.88,183.881z M139.483,154.836c-1.149-0.648-1.542-2.123-0.895-3.282c0.668-1.14,2.143-1.532,3.292-0.884l5.787,3.34    c1.151,0.669,1.553,2.143,0.884,3.282c-0.658,1.159-2.132,1.553-3.281,0.885L139.483,154.836z M176.448,144.086    c0.658-1.159,2.132-1.553,3.282-0.885c1.149,0.648,1.542,2.123,0.895,3.282l-2.044,3.518c-0.658,1.159-2.132,1.553-3.282,0.904    c-1.149-0.669-1.553-2.142-0.884-3.282L176.448,144.086z M191.236,164.858c1.337,0,2.418,1.081,2.418,2.417    s-1.081,2.417-2.418,2.417h-4.077c-1.337,0-2.418-1.081-2.418-2.417s1.081-2.417,2.418-2.417H191.236z M180.625,188.088    c0.648,1.139,0.254,2.613-0.895,3.281c-1.149,0.648-2.624,0.256-3.282-0.885l-2.034-3.537c-0.668-1.16-0.265-2.634,0.884-3.282    c1.149-0.668,2.624-0.274,3.282,0.885L180.625,188.088z M155.214,190.484c-0.669,1.16-2.143,1.553-3.292,0.885    s-1.542-2.143-0.874-3.302l2.042-3.538c0.66-1.139,2.143-1.532,3.283-0.864c1.158,0.669,1.551,2.142,0.884,3.282L155.214,190.484z     M140.425,169.692c-1.327,0-2.408-1.081-2.408-2.417s1.081-2.417,2.408-2.417h4.078c1.337,0,2.418,1.081,2.418,2.417    s-1.081,2.417-2.418,2.417H140.425z M151.048,146.483c-0.668-1.14-0.275-2.634,0.874-3.282c1.149-0.668,2.623-0.274,3.292,0.865    l2.044,3.537c0.667,1.16,0.274,2.633-0.884,3.302c-1.141,0.648-2.624,0.255-3.283-0.884L151.048,146.483z M206.309,243.958    c-0.363,0.255-0.59,0.433-0.098,0.079L206.309,243.958z" style="fill-rule:evenodd;clip-rule:evenodd;"/></g></g><g id="Layer_1"/></svg>